<?xml version="1.0" encoding="utf-8"?>
<!-- Generator: Adobe Illustrator 23.0.2, SVG Export Plug-In . SVG Version: 6.00 Build 0)  -->
<svg version="1.1" id="Слой_1" xmlns="http://www.w3.org/2000/svg" xmlns:xlink="http://www.w3.org/1999/xlink" x="0px" y="0px"
	 viewBox="0 0 389.78 163.47" style="enable-background:new 0 0 389.78 163.47;" xml:space="preserve">
<g>
	<path d="M128.28,69.06c-7.74-6.01-16.95-7.91-26.1-10.15c8.83-2.11,16.95,0.14,25.09,4.51c1.04-6.23,1.53-11.4-1.51-17.35
		c-7.05-13.78-8.81-29.11-10.9-45.97c13.92,6.02,26.86,11.45,39.61,17.29c2.75,1.26,4.66,1.18,7.32,0.06
		c23.59-9.91,47.2-9.78,70.86,0.02c1.9,0.79,4.73,0.54,6.7-0.27c12.86-5.36,25.6-11.01,39.82-17.19
		c-0.98,6.66-1.56,11.67-2.47,16.63c-2.16,11.79-4.61,23.45-10.66,34.12c-1.3,2.29-0.19,5.94-0.19,8.51
		c7.73-1.05,14.86-2.02,22-2.98c0.09,0.43,0.17,0.86,0.26,1.29c-7.45,2.25-14.9,4.49-22.34,6.74c0.16,0.53,0.32,1.07,0.48,1.6
		c5.27-0.93,10.51-2.43,15.81-2.63c5.17-0.19,10.39,0.95,15.56,2.26c-10.91,0.13-21.55,1.1-31.77,5.24
		c9.47-0.5,19.14-2.84,27.47,4.17c-2.22-0.3-4.44-0.6-7.9-1.06c5.39,3.65,8.34,7.97,14.25,9.38c7.44,1.77,9.86,10.06,6.85,17.05
		c-1.42,3.29-1.62,7.1-2.72,12.29c-2.62-9.62-10-6.29-14.22-5.72c-4.54,0.61-8.46,5.88-12.57,9.07
		c-3.37-6.03-9.06-10.17-16.91-10.67c-1.34-0.09-2.81,1.84-4.66,3.14c-2.58-5.65-5.42-11.86-8.76-19.17
		c-9.27,0-20.23,0.2-31.18-0.11c-3.81-0.11-7.7-1.14-11.36-2.34c-5.65-1.87-11.02-1.82-16.52,0.49c-2.35,0.98-4.95,1.84-7.45,1.88
		c-12.47,0.19-24.94,0.09-38.21,0.09c3.65,9.07-4.99,13.4-6.38,21.6c-1.14-2.46-1.74-3.73-2.31-4.96
		c-9.12-0.07-14.98,4.48-19.02,11.01c-3.52-2.85-7.11-6.48-11.38-8.91c-2.24-1.27-5.77-0.92-8.55-0.39
		c-2.46,0.46-4.68,2.17-7.17,3.41c-1.08-4.73-2.9-10.28-3.46-15.94c-0.53-5.31,2.88-8.87,7.63-11.21c4.54-2.23,8.96-4.74,13.42-7.12
		c-0.22-0.55-0.44-1.09-0.67-1.64c-2.48,0.32-4.96,0.63-7.44,0.95c10.28-7.53,21.17-4.82,32.4-1.9c-5.47-4.45-14.4-6.1-37.69-7
		C104.65,61.84,116.46,64.64,128.28,69.06z M178.15,47.55c-0.42,0.27-0.84,0.53-1.25,0.8c-0.25,2.12-0.23,4.33-0.82,6.35
		c-0.93,3.16-2.84,6.5-6.44,5.54c-2.32-0.62-5.02-3.46-5.68-5.83c-0.96-3.43-0.25-7.34-0.25-11.62c-2.68,0.36-6.28,0.83-9.98,1.33
		c4.79,16.84,17.93,23.86,32.45,17.19C183.48,56.68,180.81,52.11,178.15,47.55z M206.52,61.42c15.99,6.02,31.01-2.59,31.96-17.58
		c-3.45-0.34-6.92-0.68-9.79-0.96c0,4.73,0.61,8.89-0.26,12.71c-0.44,1.96-3.68,4.73-5.42,4.57c-2.17-0.2-4.75-2.69-5.92-4.85
		c-1.16-2.13-0.77-5.09-1.25-9.3C212.41,51.68,209.59,56.34,206.52,61.42z M177.47,47.45c-3.12-1.58-4.94-2.87-6.94-3.29
		c-0.63-0.13-2.74,2.53-2.46,3.09c0.82,1.69,2.28,3.74,3.88,4.15C173.05,51.67,174.79,49.47,177.47,47.45z M220.95,53.56
		c1.83-2.96,3.28-4.49,3.66-6.26c0.19-0.88-2.06-3.27-2.35-3.13c-1.79,0.83-3.97,1.89-4.72,3.48
		C217.13,48.55,219.18,50.62,220.95,53.56z M133.04,82.71c-1.19-5.47-4.65-7.05-10.64-6.44C126.55,78.63,127.49,84.03,133.04,82.71z
		 M268.13,74.08c-3.9-0.47-5.54,2.88-6.26,6.98C264.06,78.62,266.38,76.02,268.13,74.08z"/>
	<path d="M304.67,154.72c-0.84,0-2.45,0-3.26,0c0-4.56,0.18-8.95-0.12-13.3c-0.08-1.13-1.6-2.88-2.62-3.01
		c-1.05-0.13-3.12,1.21-3.32,2.2c-0.94,4.52-1.37,9.14-2.04,14.07c-0.14,0-1.75,0-2.79,0c0-4.48,0.18-8.98-0.13-13.44
		c-0.07-1.07-1.99-2.99-2.69-2.84c-1.37,0.3-3.32,1.63-3.54,2.81c-0.81,4.38-1.02,8.87-1.47,13.5c-0.64,0-2.25,0-3.45,0
		c0-5.8,0-11.41,0-17.81c1.34,0.29,2.74,0.6,5.08,1.11c4.13-2.87,5.19-2.79,8.84,0.75c3.03-0.85,6.07-2.74,7.76-1.9
		c1.89,0.94,3.19,4.25,3.61,6.72C305.11,147.06,304.67,150.71,304.67,154.72z"/>
	<path d="M311.62,136.09c3.63,4.99,6.87-0.74,10.36,0.37c4.56,1.45,5.52,5.41,5.49,9.62c-0.03,4.99-2.74,8.48-6.9,9
		c-1.47,0.18-2.98,0.03-5.35,0.03c0.22,2.72,0.43,5.38,0.65,8.23c-0.79,0-2.52,0-4.25,0C311.62,154.65,311.62,146.03,311.62,136.09z
		 M314.37,149.53c1.18,1.34,2.79,4.22,3.72,4.02c2.01-0.44,4.78-2.19,5.23-3.91c0.73-2.84,0.45-6.29-0.49-9.12
		c-1.02-3.09-3.84-3.45-5.52-0.46C315.91,142.55,315.53,145.61,314.37,149.53z"/>
	<path d="M155.86,154.36c-3.05,0.24-6.46,0.75-9.86,0.72c-3.77-0.03-6.06-3.56-6.16-8.83c-0.1-5.53,2.56-9.32,7.08-9.9
		c1.45-0.19,2.95-0.03,4.41-0.03c0-2.49,0-5.13,0-8.09c2.7-1.16,3.98-0.16,3.89,3.39c-0.15,5.82-0.09,11.65-0.01,17.48
		C155.23,150.82,155.63,152.55,155.86,154.36z M151.84,144.82c0-6.35-1.12-8.16-4.48-6.59c-1.79,0.84-3.34,3.48-3.83,5.58
		c-1.19,5.09,0.83,9.57,3.8,9.3C152.62,152.61,151.78,148.39,151.84,144.82z"/>
	<path d="M95.47,129.12c0,2.02,0,3.94,0,7.1c-2.25-5.08-5.17-7.55-9.77-6.25c-4.81,1.36-5.9,5.42-6.22,9.76
		c-0.34,4.74-0.2,9.47,4.03,12.69c2.89,2.2,6.31,2.26,8.35-0.79c1.21-1.8,0.76-4.71,1.05-7.12c-0.49-0.13-0.97-0.27-1.46-0.4
		c1.96,0,3.93,0,6.26,0c-0.78,2.59-1.03,5.29-2.32,7.33c-3.67,5.81-13.9,4.85-17.83-1.47c-2.84-4.56-2.76-12.97,0.4-17.1
		c3.72-4.86,8.59-5.81,14.26-3.79C93.19,129.42,94.38,129.12,95.47,129.12z"/>
	<path d="M4.44,134.76c-0.21-1.9-0.42-3.81-0.66-5.98c6.75,0,13.16,0,19.72,0c0,2.12,0,4.16,0,6.2c-0.2,0.03-0.41,0.07-0.61,0.1
		c-0.47-1.52-0.94-3.03-1.47-4.77c-1.73,0-3.49,0-5.84,0c0.85,8.23-1.34,16.57,1.29,24.47c-1.56,0-4.53,0-6.97,0
		c0.68-1.02,2.1-2.17,2.14-3.36c0.21-6.93,0.11-13.88,0.11-21.13c-2.1-0.09-3.7-0.17-5.66-0.25c-0.43,1.68-0.83,3.21-1.23,4.75
		C4.97,134.78,4.71,134.77,4.44,134.76z"/>
	<path d="M190.39,129.84c0,1.47,0,3.12,0,5.71c-2.57-4.59-5.68-7.15-10.32-5.44c-4.85,1.78-5.52,6.21-5.85,10.64
		c-0.09,1.15,0.04,2.33,0.15,3.48c0.42,4.21,1.76,8.57,6.29,9.04c3.14,0.33,6.54-1.9,9.64-2.93c0,0.04,0,1.47,0,3.01
		c-5.98,1.83-12.25,3.89-17.03-2.31c-3.91-5.06-3.92-11.08-1.3-16.58C175.88,126.25,183.09,127.69,190.39,129.84z"/>
	<path d="M366.5,154.73c-0.73,0-2.34,0-3.26,0c0-4.53,0.18-8.91-0.12-13.25c-0.08-1.14-1.68-3.07-2.54-3.05
		c-1.32,0.04-3.51,1.25-3.75,2.31c-0.99,4.41-1.39,8.96-2.07,13.86c-0.59,0-2.14,0-3.22,0c0-5.74,0-11.44,0-17.78
		c1.31,0.3,2.9,0.67,4.13,0.95c2.67-0.35,5.9-1.76,7.61-0.71c1.82,1.12,2.71,4.5,3.1,7.03C366.88,147.43,366.5,150.89,366.5,154.73z
		"/>
	<path d="M253.5,153.53c-5.38,1.36-11.28,3.67-15.59-1.4c-2.26-2.66-3.43-6.72-3.92-10.31c-0.68-5.05,1.01-10.28,5.99-12.1
		c4.11-1.5,9.01-0.84,13.59-1.14c0,2.74,0,4.49,0,7.36c-2.18-4.91-5.03-7.1-9.45-6.03c-4.46,1.08-5.72,4.8-6.31,8.67
		c-0.35,2.27-0.29,4.69,0.11,6.96c0.7,3.98,2.58,7.91,6.95,7.97c2.91,0.04,5.86-2.26,8.63-3.44
		C253.5,150.4,253.5,152.06,253.5,153.53z"/>
	<path d="M204.64,153.73c-3.85,0.42-6.42,1.27-8.61,0.69c-1.08-0.28-2.49-4.29-2.01-4.73c2.56-2.34,5.66-4.1,8.57-6.05
		c0.62,0.2,1.25,0.4,1.87,0.6c-0.98-2.13-1.96-4.27-2.95-6.4c-1.49,1.46-2.99,2.91-5.29,5.17c-2.17-0.98-1.68-3.55,0.27-4.93
		c1.78-1.25,4.76-1.78,6.86-1.24c1.46,0.37,3.06,2.98,3.3,4.76c0.51,3.7,0.15,7.51,0.15,12.32c1.9-1.21,2.71-1.72,3.49-2.21
		C208.63,156.19,207.58,156.34,204.64,153.73z M204.45,147.76c-0.77-0.79-1.53-1.57-2.3-2.36c-1.79,1.63-3.65,3.2-5.25,5
		c-0.16,0.18,1.3,1.79,2.01,2.74C200.76,151.34,202.61,149.55,204.45,147.76z"/>
	<path d="M343.69,153.93c1.91-1.24,2.62-1.7,3.58-2.32c-2.15,4.68-3.26,4.75-5.91,1.94c-3.6,0.38-6.3,1.06-8.86,0.71
		c-0.81-0.11-2.01-3.17-1.69-4.57c1.12-4.91,5.46-4.47,10.72-4.85c-1.29-2.69-2.34-4.9-3.4-7.11c-1.48,1.57-2.97,3.13-4.91,5.19
		c-2.78-0.81-1.71-3.36,0.01-4.69c1.62-1.25,4.46-2.14,6.28-1.6c1.72,0.51,3.69,2.96,4.01,4.81
		C344.13,145.12,343.69,148.97,343.69,153.93z M341.19,147.82c-0.47-0.51-0.94-1.01-1.41-1.52c-2.89-0.08-5.54,0.48-5.95,4.06
		c-0.1,0.83,1.32,1.84,2.04,2.77C337.64,151.37,339.42,149.6,341.19,147.82z"/>
	<path d="M136.75,145.62c0.05,5.87-3.21,9.58-8.41,9.57c-5,0-8.33-3.57-8.49-9.08c-0.16-5.73,3.18-9.73,8.24-9.86
		C133.29,136.12,136.7,139.82,136.75,145.62z M133.48,146.49c0.09-5.09-2.43-9.55-5.14-9.04c-4.31,0.81-4.85,4.4-4.87,8.07
		c0,0.83-0.24,1.84,0.15,2.45c1.31,2.08,2.84,4.02,4.28,6.02c1.72-1.7,3.54-3.32,5.09-5.16
		C133.54,148.17,133.4,146.93,133.48,146.49z"/>
	<path d="M116.83,145.92c-0.04,5.86-3.37,9.43-8.66,9.28c-4.87-0.14-8.17-3.9-8.22-9.39c-0.06-5.69,3.44-9.58,8.56-9.56
		C113.66,136.28,116.87,140,116.83,145.92z M103.44,145.03c0.1,1.42-0.19,2.66,0.3,3.35c1.4,2,3.12,3.78,4.72,5.64
		c1.62-1.84,3.87-3.45,4.67-5.6c0.73-1.95,0.39-4.7-0.43-6.71c-0.7-1.72-2.74-3.98-4.22-4c-1.46-0.02-3.18,2.29-4.35,3.9
		C103.44,142.56,103.6,144.13,103.44,145.03z"/>
	<path d="M273.83,145.64c0.01,6.03-3.07,9.57-8.32,9.55c-5.17-0.02-8.42-3.77-8.34-9.62c0.08-5.69,3.16-9.21,8.16-9.32
		C270.61,136.13,273.82,139.68,273.83,145.64z M270.65,146.46c0.09-5.19-2.31-9.39-5.15-8.92c-4.42,0.73-4.7,4.49-4.96,8.03
		c-0.06,0.82-0.21,1.87,0.2,2.44c1.5,2.09,3.23,4.02,4.87,6.01c1.6-1.87,3.28-3.68,4.75-5.65
		C270.79,147.79,270.61,146.76,270.65,146.46z"/>
	<path d="M63.06,145.59c-5.16,0-8.44,0-13.49,0c1.91,3.34,2.74,6.65,4.75,7.71c1.66,0.87,4.72-0.93,6.54-1.39
		c-1.21,3.37-6.09,4.72-10.07,1.79c-4.93-3.63-4.55-13.67,0.95-16.26c2.08-0.98,5.62-1.11,7.35,0.07
		C60.94,138.75,61.43,141.99,63.06,145.59z M60.23,144.23c-1.94-2.84-2.99-6.02-4.47-6.23c-3.88-0.55-4.44,2.79-4.77,6.23
		C53.58,144.23,55.95,144.23,60.23,144.23z"/>
	<path d="M385.98,137.33c-2.45,6.46-4.88,12.92-7.36,19.37c-0.77,2-1.49,4.06-2.58,5.89c-0.37,0.62-1.79,0.61-2.73,0.89
		c0.15-0.92-0.03-2.28,0.51-2.68c4.22-3.16,4.39-6.85,2.28-11.36c-1.81-3.87-3.07-7.99-4.64-12.2c1.25,0,2.77,0,3.71,0
		c1.33,3.93,2.59,7.64,3.92,11.56C382.99,145.39,381.5,139.39,385.98,137.33z"/>
	<path d="M32.84,139.27c-0.81,5.04-1.62,10.07-2.5,15.48c-0.16,0-1.78,0-3.06,0c0-8.83,0-17.53,0-26.49
		c2.65-1.19,3.56-0.05,3.65,3.16c0.07,2.51,1,4.99,1.55,7.48C32.6,139.02,32.72,139.14,32.84,139.27z"/>
	<path d="M218.43,153.9c0.92-1.29,1.35-1.9,2.07-2.89c0.04,0.99,0.27,2.04,0.07,2.13c-1.46,0.65-3.02,1.49-4.52,1.44
		c-0.62-0.02-1.53-2.04-1.68-3.23c-0.54-4.52-1.14-9.07-1.03-13.6c0.04-1.51,2.14-2.96,3.31-4.45c0.92,1.46,1.86,2.95,2.85,4.53
		C217.2,138.98,216.45,145.45,218.43,153.9z"/>
	<path d="M32.48,138.9c2.09-0.78,4.46-2.55,6.18-2.05c1.54,0.45,3.1,3.29,3.34,5.24c0.51,4.08,0.15,8.27,0.15,12.61
		c-0.22,0-1.66,0-3.08,0c0-3.97,0.14-8-0.04-12.02c-0.19-4.28-2.28-5.62-6.19-3.41C32.72,139.14,32.6,139.02,32.48,138.9z"/>
</g>
</svg>
